# xmcd
#
# Track frame offsets:
#	150
#	16792
#	25105
#	40035
#	51982
#	65802
#	79054
#	89209
#	100131
#	114427
#	127173
#	141080
#	150854
#	156284
#	166593
#	176260
#	192260
#
# Disc length: 2732 seconds
#
# Revision: 1
# Processed by: cddbd v1.5.2PL0 Copyright (c) Steve Scherf et al.
# Submitted via: audiograbber 1.83.01
#
DISCID=d50aaa11
DTITLE=Fabulous Thunderbirds - What's the word
DYEAR=2013
DGENRE=Blues
TTITLE0=Runnin' shoes
TTITLE1=You ain't nothing but fine
TTITLE2=Low-down woman
TTITLE3=Extra Jimmes
TTITLE4=Sugar coated love
TTITLE5=Last call for alcohol
TTITLE6=The crawl
TTITLE7=Jumpin' bad
TTITLE8=Learn to treat me right
TTITLE9=I'm a good man (if you give me a chance)
TTITLE10=Dirty work
TTITLE11=That's enough of that stuff
TTITLE12=Los Fabulosos Thunderbirds (bonus)
TTITLE13=Look whatcha done (bonus)
TTITLE14=Please don't lie to me (bonus)
TTITLE15=Introduction of band by C-Boy,Bottom Line,Austin - Bad boy (live) (bon
TTITLE15=us)
TTITLE16=The crawl (live) (bonus)
EXTD=
EXTT0=
EXTT1=
EXTT2=
EXTT3=
EXTT4=
EXTT5=
EXTT6=
EXTT7=
EXTT8=
EXTT9=
EXTT10=
EXTT11=
EXTT12=
EXTT13=
EXTT14=
EXTT15=
EXTT16=
PLAYORDER=
